<svg preserveAspectRatio="none" width="100%" height="100%" overflow="visible" style="display: block;" viewBox="0 0 40 40" fill="none" xmlns="http://www.w3.org/2000/svg">
<g id="Frame" clip-path="url(#clip0_0_68)">
<g id="Vector">
</g>
<path id="Vector_2" d="M20 25C20 26.3261 20.5268 27.5979 21.4645 28.5355C22.4021 29.4732 23.6739 30 25 30C26.3261 30 27.5979 29.4732 28.5355 28.5355C29.4732 27.5979 30 26.3261 30 25C30 23.6739 29.4732 22.4021 28.5355 21.4645C27.5979 20.5268 26.3261 20 25 20C23.6739 20 22.4021 20.5268 21.4645 21.4645C20.5268 22.4021 20 23.6739 20 25Z" stroke="var(--stroke-0, #0052CC)" stroke-width="2" stroke-linecap="round" stroke-linejoin="round"/>
<path id="Vector_3" d="M21.6667 29.1667V36.6667L25 34.1667L28.3333 36.6667V29.1667" stroke="var(--stroke-0, #0052CC)" stroke-width="2" stroke-linecap="round" stroke-linejoin="round"/>
<path id="Vector_4" d="M16.6667 31.6667H8.33333C7.44928 31.6667 6.60143 31.3155 5.97631 30.6904C5.35119 30.0652 5 29.2174 5 28.3333V11.6667C5 9.83333 6.5 8.33333 8.33333 8.33333H31.6667C32.5507 8.33333 33.3986 8.68452 34.0237 9.30964C34.6488 9.93476 35 10.7826 35 11.6667V28.3333C34.9994 28.9179 34.8451 29.492 34.5526 29.9981C34.26 30.5041 33.8396 30.9244 33.3333 31.2167" stroke="var(--stroke-0, #0052CC)" stroke-width="2" stroke-linecap="round" stroke-linejoin="round"/>
<path id="Vector_5" d="M10 15H30" stroke="var(--stroke-0, #0052CC)" stroke-width="1.5" stroke-linecap="round" stroke-linejoin="round"/>
<path id="Vector_6" d="M10 20H15" stroke="var(--stroke-0, #0052CC)" stroke-width="1.5" stroke-linecap="round" stroke-linejoin="round"/>
<path id="Vector_7" d="M10 25H13.3333" stroke="var(--stroke-0, #0052CC)" stroke-width="1.5" stroke-linecap="round" stroke-linejoin="round"/>
</g>
<defs>
<clipPath id="clip0_0_68">
<rect width="40" height="40" fill="white"/>
</clipPath>
</defs>
</svg>
